<?xml version="1.0" encoding="UTF-8"?>
<svg width="80" height="100" viewBox="0 0 80 100" fill="none" xmlns="http://www.w3.org/2000/svg">
    <!-- Drop shadow for the whole pin -->
    <filter id="dropShadow" x="-20%" y="-20%" width="140%" height="140%">
        <feDropShadow dx="0" dy="2" stdDeviation="2" flood-opacity="0.3" flood-color="#000000"/>
    </filter>

    <!-- Pin body -->
    <path d="M40 0C18 0 0 18 0 40C0 62 40 100 40 100C40 100 80 62 80 40C80 18 62 0 40 0Z" 
          fill="#F46119" 
          filter="url(#dropShadow)"/>

    <!-- White circle background for the image -->
    <circle cx="40" cy="36" r="24" fill="white"/>

    <!-- iPhone in perspective -->
    <g transform="translate(22, 12)">
        <!-- Phone outline with perspective (case) -->
        <path d="M2 6C2 4.34315 3.34315 3 5 3H31C32.6569 3 34 4.34315 34 6V42C34 43.6569 32.6569 45 31 45H5C3.34315 45 2 43.6569 2 42V6Z" 
              fill="#FF69B4"
              transform="skewX(-8)"/>
              
        <!-- Phone body -->
        <path d="M4 8C4 6.34315 5.34315 5 7 5H29C30.6569 5 32 6.34315 32 8V40C32 41.6569 30.6569 43 29 43H7C5.34315 43 4 41.6569 4 40V8Z" 
              fill="#333333"
              transform="skewX(-8)"/>
              
        <!-- Screen -->
        <path d="M5 9C5 7.89543 5.89543 7 7 7H29C30.1046 7 31 7.89543 31 9V39C31 40.1046 30.1046 41 29 41H7C5.89543 41 5 40.1046 5 39V9Z" 
              fill="#FFFFFF"
              transform="skewX(-8)"/>
              
        <!-- Notch -->
        <path d="M13 6H23C23.5523 6 24 6.44772 24 7V8C24 8.55228 23.5523 9 23 9H13C12.4477 9 12 8.55228 12 8V7C12 6.44772 12.4477 6 13 6Z" 
              fill="#333333"
              transform="skewX(-8)"/>
              
        <!-- Flamingo decoration -->
        <path d="M28 12C31 10 33 11 33 12C32 13 31 14 32 16C30 15 28 13 28 12Z" 
              fill="#FF1493"/>
    </g>
</svg>